<svg width="740" height="583" xmlns="http://www.w3.org/2000/svg" xmlns:xlink="http://www.w3.org/1999/xlink" overflow="hidden"><defs><filter id="fx0" x="-10%" y="-10%" width="120%" height="120%" filterUnits="userSpaceOnUse" primitiveUnits="userSpaceOnUse"><feComponentTransfer color-interpolation-filters="sRGB"><feFuncR type="discrete" tableValues="0 0"/><feFuncG type="discrete" tableValues="0 0"/><feFuncB type="discrete" tableValues="0 0"/><feFuncA type="linear" slope="0.4" intercept="0"/></feComponentTransfer><feGaussianBlur stdDeviation="1.77778 1.77778"/></filter><filter id="fx1" x="-10%" y="-10%" width="120%" height="120%" filterUnits="userSpaceOnUse" primitiveUnits="userSpaceOnUse"><feComponentTransfer color-interpolation-filters="sRGB"><feFuncR type="discrete" tableValues="0 0"/><feFuncG type="discrete" tableValues="0 0"/><feFuncB type="discrete" tableValues="0 0"/><feFuncA type="linear" slope="0.4" intercept="0"/></feComponentTransfer><feGaussianBlur stdDeviation="1.77778 1.77778"/></filter><filter id="fx2" x="-10%" y="-10%" width="120%" height="120%" filterUnits="userSpaceOnUse" primitiveUnits="userSpaceOnUse"><feComponentTransfer color-interpolation-filters="sRGB"><feFuncR type="discrete" tableValues="0 0"/><feFuncG type="discrete" tableValues="0 0"/><feFuncB type="discrete" tableValues="0 0"/><feFuncA type="linear" slope="0.4" intercept="0"/></feComponentTransfer><feGaussianBlur stdDeviation="1.77778 1.77778"/></filter><filter id="fx3" x="-10%" y="-10%" width="120%" height="120%" filterUnits="userSpaceOnUse" primitiveUnits="userSpaceOnUse"><feComponentTransfer color-interpolation-filters="sRGB"><feFuncR type="discrete" tableValues="0 0"/><feFuncG type="discrete" tableValues="0 0"/><feFuncB type="discrete" tableValues="0 0"/><feFuncA type="linear" slope="0.4" intercept="0"/></feComponentTransfer><feGaussianBlur stdDeviation="1.77778 1.77778"/></filter><filter id="fx4" x="-10%" y="-10%" width="120%" height="120%" filterUnits="userSpaceOnUse" primitiveUnits="userSpaceOnUse"><feComponentTransfer color-interpolation-filters="sRGB"><feFuncR type="discrete" tableValues="0 0"/><feFuncG type="discrete" tableValues="0 0"/><feFuncB type="discrete" tableValues="0 0"/><feFuncA type="linear" slope="0.4" intercept="0"/></feComponentTransfer><feGaussianBlur stdDeviation="1.77778 1.77778"/></filter><clipPath id="clip5"><rect x="313" y="49" width="740" height="583"/></clipPath><clipPath id="clip6"><path d="M638.388 85.5001 577.652 185.239 602.877 185.239 546.623 270.159 581.882 270.159 519.5 354.455 627.229 354.455 627.229 563.5 653.771 563.5 653.771 354.455 761.5 354.455 699.118 270.159 730.152 270.159 673.898 185.239 699.123 185.239ZM313 49 1053 49 1053 632 313 632Z" fill-rule="evenodd" clip-rule="evenodd"/></clipPath><clipPath id="clip7"><rect x="-2" y="-2" width="331" height="554"/></clipPath><clipPath id="clip8"><rect x="0" y="0" width="329" height="552"/></clipPath><clipPath id="clip9"><path d="M449.874 281.5 417.499 340.759 430.945 340.759 400.958 391.214 419.753 391.214 386.5 441.297 443.926 441.297 443.926 565.5 458.074 565.5 458.074 441.297 515.5 441.297 482.247 391.214 498.79 391.214 468.803 340.759 482.25 340.759ZM313 49 1053 49 1053 632 313 632Z" fill-rule="evenodd" clip-rule="evenodd"/></clipPath><clipPath id="clip10"><rect x="-2" y="-2" width="184" height="335"/></clipPath><clipPath id="clip11"><rect x="0" y="0" width="181" height="333"/></clipPath><clipPath id="clip12"><path d="M351.002 437 336.697 463.291 342.638 463.291 329.389 485.676 337.693 485.676 323 507.896 348.374 507.896 348.374 563 354.626 563 354.626 507.896 380 507.896 365.307 485.676 372.616 485.676 359.367 463.291 365.308 463.291ZM313 49 1053 49 1053 632 313 632Z" fill-rule="evenodd" clip-rule="evenodd"/></clipPath><clipPath id="clip13"><rect x="-2" y="-2" width="89" height="157"/></clipPath><clipPath id="clip14"><rect x="0" y="0" width="86" height="154"/></clipPath><clipPath id="clip15"><path d="M893.871 404.251 843.645 482.716 803.903 457.277 775.834 466.564 831.27 502.049 781.044 580.514 868.132 572.206 853.663 594.81 938.324 591.241 926.564 609.614 1023.51 609.308 983.197 521.14 971.436 539.512 939.229 461.135 922.791 486.816ZM313 49 1053 49 1053 632 313 632Z" fill-rule="evenodd" clip-rule="evenodd"/></clipPath><clipPath id="clip16"><rect x="-2" y="-2" width="316" height="265"/></clipPath><clipPath id="clip17"><rect x="0" y="0" width="313" height="263"/></clipPath><clipPath id="clip18"><path d="M703.5 476.5 703.5 563.5 726.5 563.5 726.5 495.008ZM313 49 1053 49 1053 632 313 632Z" fill-rule="evenodd" clip-rule="evenodd"/></clipPath><clipPath id="clip19"><rect x="-2" y="-2" width="67" height="145"/></clipPath><clipPath id="clip20"><rect x="0" y="0" width="64" height="143"/></clipPath></defs><g clip-path="url(#clip5)" transform="translate(-313 -49)"><path d="M351.001 576.174C350.545 447.216 478.221 342.373 636.174 342.001 794.127 341.628 922.543 445.868 922.999 574.825 923 575.05 923 575.275 923 575.5L637 575.5Z" fill="#BFBFBF" fill-rule="evenodd"/><g clip-path="url(#clip6)"><g clip-path="url(#clip7)" filter="url(#fx0)" transform="translate(482 49)"><g clip-path="url(#clip8)"><path d="M162.255 39.9694 224.205 141.703 198.476 141.703 255.855 228.322 224.201 228.322 287.83 314.303 177.946 314.303 177.946 527.529 150.873 527.529 150.873 314.303 40.9899 314.303 104.619 228.322 68.6555 228.322 126.035 141.703 100.305 141.703Z" stroke="#404040" stroke-width="34" stroke-linecap="round" stroke-miterlimit="8" fill="#A6A6A6" fill-rule="evenodd"/></g></g></g><path d="M638.388 85.5001 699.123 185.239 673.898 185.239 730.152 270.159 699.118 270.159 761.5 354.455 653.771 354.455 653.771 563.5 627.229 563.5 627.229 354.455 519.5 354.455 581.882 270.159 546.623 270.159 602.877 185.239 577.652 185.239Z" stroke="#404040" stroke-width="33.3333" stroke-linecap="round" stroke-miterlimit="8" fill="#A6A6A6" fill-rule="evenodd"/><g clip-path="url(#clip9)"><g clip-path="url(#clip10)" filter="url(#fx1)" transform="translate(365 258)"><g clip-path="url(#clip11)"><path d="M89.318 26.7178 122.341 87.1622 108.626 87.1622 139.212 138.626 122.338 138.626 156.256 189.711 97.6822 189.711 97.6822 316.398 83.2507 316.398 83.2507 189.711 24.6765 189.711 58.5946 138.626 39.4239 138.626 70.0103 87.1622 56.295 87.1622Z" stroke="#404040" stroke-width="19" stroke-linecap="round" stroke-miterlimit="8" fill="#A6A6A6" fill-rule="evenodd"/></g></g></g><path d="M449.874 281.5 482.25 340.759 468.803 340.759 498.79 391.214 482.247 391.214 515.5 441.297 458.074 441.297 458.074 565.5 443.926 565.5 443.926 441.297 386.5 441.297 419.753 391.214 400.958 391.214 430.945 340.759 417.499 340.759Z" stroke="#404040" stroke-width="18.6667" stroke-linecap="round" stroke-miterlimit="8" fill="#A6A6A6" fill-rule="evenodd"/><g clip-path="url(#clip12)"><g clip-path="url(#clip13)" filter="url(#fx2)" transform="translate(312 425)"><g clip-path="url(#clip14)"><path d="M42.5336 14.9888 57.1251 41.8057 51.0649 41.8057 64.5798 64.6383 57.124 64.6383 72.111 87.3027 46.2294 87.3027 46.2294 143.509 39.8527 143.509 39.8527 87.3027 13.971 87.3027 28.9581 64.6383 20.4873 64.6383 34.0023 41.8057 27.942 41.8057Z" stroke="#404040" stroke-width="8" stroke-linecap="round" stroke-miterlimit="8" fill="#A6A6A6" fill-rule="evenodd"/></g></g></g><path d="M351.002 437 365.308 463.291 359.367 463.291 372.616 485.676 365.307 485.676 380 507.896 354.626 507.896 354.626 563 348.374 563 348.374 507.896 323 507.896 337.693 485.676 329.389 485.676 342.638 463.291 336.697 463.291Z" stroke="#404040" stroke-width="7.66667" stroke-linecap="round" stroke-miterlimit="8" fill="#A6A6A6" fill-rule="evenodd"/><g clip-path="url(#clip15)"><g clip-path="url(#clip16)" filter="url(#fx3)" transform="translate(741 370)"><g clip-path="url(#clip17)"><path d="M285.34 242.136 188.392 242.442 200.153 224.07 115.492 227.639 129.96 205.035 42.8724 213.342 93.0986 134.877 37.6627 99.3921 65.7316 90.1059 105.473 115.545 155.699 37.0795 184.619 119.644 201.058 93.9636 233.265 172.341 245.025 153.968 285.34 242.136Z" stroke="#000000" stroke-width="26.6667" stroke-miterlimit="8" fill-rule="evenodd"/></g></g></g><path d="M1023.51 609.308 926.564 609.614 938.324 591.241 853.663 594.81 868.132 572.206 781.044 580.514 831.27 502.049 775.834 466.564 803.903 457.277 843.645 482.716 893.871 404.251 922.791 486.816 939.229 461.135 971.436 539.512 983.197 521.14 1023.51 609.308Z" stroke="#000000" stroke-width="26.6667" stroke-miterlimit="8" fill-rule="evenodd"/><g clip-path="url(#clip18)"><g clip-path="url(#clip19)" filter="url(#fx4)" transform="translate(686 444)"><g clip-path="url(#clip20)"><path d="M20.3285 35.3285 43.3285 53.8364 43.3285 122.328 20.3285 122.328 20.3285 35.3285Z" stroke="#000000" stroke-width="27" stroke-miterlimit="8" fill="#595959" fill-rule="evenodd"/></g></g></g><path d="M703.5 476.5 726.5 495.008 726.5 563.5 703.5 563.5 703.5 476.5Z" stroke="#000000" stroke-width="26.6667" stroke-miterlimit="8" fill="#595959" fill-rule="evenodd"/></g></svg>